# xmcd
# 
# Track frame offsets:
#     150
#     12467
#     25098
#     42348
#     54874
#     75241
#     85772
#     102000
#     116337
#     134347
#     146629
#     160544
#     174724
#     188635
#     201487
#     214685
#     227309
#     242971
#     262276
#     279105
#     298400
#     315349
#     326132
# 
# Disc length: 4545
# 
# Revision: 2
# Processed by: cddbd v1.5.2PL0 Copyright (c) Steve Scherf et al.
# Submitted via: fre:ac v1.0.31
# 
DISCID=3c11bf17
DTITLE=Mac Davis - A Little More Action Please - The Anthology - 1970-1985
DYEAR=2013
DGENRE=Rock/Pop
TTITLE0=In The Ghetto
TTITLE1=Hello L.A., Bye Bye Birmingham
TTITLE2=Memories
TTITLE3=Once You Get Used To It
TTITLE4=Whoever Finds This, I Love You
TTITLE5=A Little Less Conversation
TTITLE6=I Believe In Music
TTITLE7=Watching Scotty Grow
TTITLE8=Something's Burning
TTITLE9=Yesterday And You
TTITLE10=Baby, Don't Get Hooked On Me
TTITLE11=Poor Boy Boogie
TTITLE12=Dream Me Home
TTITLE13=One Hell Of A Woman
TTITLE14=Stop And Smell The Roses
TTITLE15=Lucas Was A Redneck
TTITLE16=Rock 'N' Roll (I Gave You The Best Years Of My Life)
TTITLE17=It's Hard To Be Humble
TTITLE18=Let's Keep It That Way
TTITLE19=Texas In My Rear View Mirror
TTITLE20=Hooked On Music
TTITLE21=You're My Bestest Friend
TTITLE22=I Never Made Love (Till I Made Love With You)
EXTD=
EXTT0=
EXTT1=
EXTT2=
EXTT3=
EXTT4=
EXTT5=
EXTT6=
EXTT7=
EXTT8=
EXTT9=
EXTT10=
EXTT11=
EXTT12=
EXTT13=
EXTT14=
EXTT15=
EXTT16=
EXTT17=
EXTT18=
EXTT19=
EXTT20=
EXTT21=
EXTT22=
PLAYORDER=
